<svg xmlns="http://www.w3.org/2000/svg" width="136" height="103" fill="none"><path stroke="url(#a)" stroke-width="2" d="M1.61 53.087v.32l.187.261 30.652 42.913 1.814 2.54V55.109h20.522a4 4 0 0 0 4-4V12c0-6.075-4.925-11-11-11H5.61a4 4 0 0 0-4 4v48.087Z"/><path stroke="url(#b)" stroke-width="2" d="M77.216 53.087v.32l.186.261 30.652 42.913 1.814 2.54V55.109h20.522a4 4 0 0 0 4-4V12c0-6.075-4.925-11-11-11H81.216a4 4 0 0 0-4 4v48.087Z"/><defs><linearGradient id="a" x1="25.838" x2="25.838" y1="8.497" y2="92.544" gradientUnits="userSpaceOnUse"><stop stop-color="#C9F31D"/><stop offset=".84" stop-color="#0D0D0D"/></linearGradient><linearGradient id="b" x1="101.443" x2="101.443" y1="8.497" y2="92.544" gradientUnits="userSpaceOnUse"><stop stop-color="#C9F31D"/><stop offset=".84" stop-color="#0D0D0D"/></linearGradient></defs></svg>