<svg width="100" height="100" viewBox="0 0 100 100" fill="none" xmlns="http://www.w3.org/2000/svg">
<g clip-path="url(#clip0_3_2820)">
<path d="M50 13.542C53.7395 13.542 56.771 10.5105 56.771 6.771C56.771 3.03148 53.7395 0 50 0C46.2605 0 43.229 3.03148 43.229 6.771C43.229 10.5105 46.2605 13.542 50 13.542Z" fill="white" stroke="white" stroke-linejoin="round"/>
<path d="M50 35.156C53.7395 35.156 56.771 32.1245 56.771 28.385C56.771 24.6455 53.7395 21.614 50 21.614C46.2605 21.614 43.229 24.6455 43.229 28.385C43.229 32.1245 46.2605 35.156 50 35.156Z" fill="white" stroke="white" stroke-linejoin="round"/>
<path d="M50 56.771C53.7395 56.771 56.771 53.7395 56.771 50C56.771 46.2605 53.7395 43.229 50 43.229C46.2605 43.229 43.229 46.2605 43.229 50C43.229 53.7395 46.2605 56.771 50 56.771Z" fill="white" stroke="white" stroke-linejoin="round"/>
<path d="M50 78.386C53.7395 78.386 56.771 75.3545 56.771 71.615C56.771 67.8755 53.7395 64.844 50 64.844C46.2605 64.844 43.229 67.8755 43.229 71.615C43.229 75.3545 46.2605 78.386 50 78.386Z" fill="white" stroke="white" stroke-linejoin="round"/>
<path d="M50 100C53.7395 100 56.771 96.9685 56.771 93.229C56.771 89.4895 53.7395 86.458 50 86.458C46.2605 86.458 43.229 89.4895 43.229 93.229C43.229 96.9685 46.2605 100 50 100Z" fill="white" stroke="white" stroke-linejoin="round"/>
<path d="M93.229 56.771C96.9685 56.771 100 53.7395 100 50C100 46.2605 96.9685 43.229 93.229 43.229C89.4895 43.229 86.458 46.2605 86.458 50C86.458 53.7395 89.4895 56.771 93.229 56.771Z" fill="white" stroke="white" stroke-linejoin="round"/>
<path d="M71.615 56.771C75.3545 56.771 78.386 53.7395 78.386 50C78.386 46.2605 75.3545 43.229 71.615 43.229C67.8755 43.229 64.844 46.2605 64.844 50C64.844 53.7395 67.8755 56.771 71.615 56.771Z" fill="white" stroke="white" stroke-linejoin="round"/>
<path d="M28.385 56.771C32.1245 56.771 35.156 53.7395 35.156 50C35.156 46.2605 32.1245 43.229 28.385 43.229C24.6455 43.229 21.614 46.2605 21.614 50C21.614 53.7395 24.6455 56.771 28.385 56.771Z" fill="white" stroke="white" stroke-linejoin="round"/>
<path d="M6.771 56.771C10.5105 56.771 13.542 53.7395 13.542 50C13.542 46.2605 10.5105 43.229 6.771 43.229C3.03148 43.229 0 46.2605 0 50C0 53.7395 3.03148 56.771 6.771 56.771Z" fill="white" stroke="white" stroke-linejoin="round"/>
</g>
<defs>
<clipPath id="clip0_3_2820">
<rect width="100" height="100" fill="white"/>
</clipPath>
</defs>
</svg>
